<svg width="43" height="20" viewBox="0 0 43 20" fill="none" xmlns="http://www.w3.org/2000/svg">
<path d="M18.887 13.7067H5.98404L6.6319 12.4489L17.3963 12.4304C17.7603 12.4304 18.0723 12.1825 18.1373 11.8397L19.628 3.88606C19.6671 3.67746 19.6085 3.46267 19.4655 3.29951C19.3949 3.21921 19.3067 3.15453 19.2072 3.10995C19.1077 3.06537 18.9992 3.04196 18.8892 3.04134L5.19534 2.99797L5.07834 2.47337C5.00467 2.13879 4.68832 1.89508 4.32864 1.89508H0.981018C0.778164 1.89508 0.583618 1.97189 0.440179 2.10862C0.296739 2.24534 0.216156 2.43078 0.216156 2.62414C0.216156 2.8175 0.296739 3.00294 0.440179 3.13967C0.583618 3.27639 0.778164 3.35321 0.981018 3.35321H3.70895L4.22031 5.67051L5.47919 11.4803L3.85846 14.0021C3.77429 14.1104 3.7236 14.2389 3.71211 14.3732C3.70062 14.5076 3.7288 14.6423 3.79346 14.7621C3.92346 15.0079 4.18564 15.1628 4.47598 15.1628H5.8367C5.54661 15.5301 5.38993 15.9774 5.39035 16.4371C5.39035 17.6061 6.38705 18.5561 7.61343 18.5561C8.83981 18.5561 9.83652 17.6061 9.83652 16.4371C9.83652 15.9765 9.67618 15.5284 9.39017 15.1628H12.8808C12.5907 15.5301 12.434 15.9774 12.4344 16.4371C12.4344 17.6061 13.4312 18.5561 14.6575 18.5561C15.8839 18.5561 16.8806 17.6061 16.8806 16.4371C16.8806 15.9765 16.7203 15.5284 16.4343 15.1628H18.8892C19.3095 15.1628 19.6541 14.8365 19.6541 14.4337C19.6528 14.2406 19.5714 14.0557 19.4277 13.9195C19.284 13.7833 19.0897 13.7068 18.887 13.7067ZM5.51385 4.43544L17.99 4.47468L16.7679 10.997L6.96774 11.0135L5.51385 4.43544ZM7.61343 17.0897C7.23642 17.0897 6.92874 16.7965 6.92874 16.4371C6.92874 16.0777 7.23642 15.7845 7.61343 15.7845C7.99045 15.7845 8.29813 16.0777 8.29813 16.4371C8.29813 16.6102 8.22599 16.7762 8.09758 16.8986C7.96918 17.021 7.79502 17.0897 7.61343 17.0897ZM14.6575 17.0897C14.2805 17.0897 13.9728 16.7965 13.9728 16.4371C13.9728 16.0777 14.2805 15.7845 14.6575 15.7845C15.0345 15.7845 15.3422 16.0777 15.3422 16.4371C15.3422 16.6102 15.2701 16.7762 15.1417 16.8986C15.0133 17.021 14.8391 17.0897 14.6575 17.0897Z" fill="#4D4D4D"/>
<circle cx="33.5382" cy="10.2256" r="9.25614" fill="#677DA8"/>
<path d="M35.1173 11.8655C34.5842 12.5986 33.8363 12.9651 32.8736 12.9651C31.911 12.9651 31.1594 12.5986 30.6188 11.8655C30.0857 11.1324 29.8191 10.155 29.8191 8.93316C29.8191 7.71135 30.0857 6.7339 30.6188 6.00082C31.1594 5.26773 31.911 4.90119 32.8736 4.90119C33.8363 4.90119 34.5842 5.26773 35.1173 6.00082C35.6579 6.7339 35.9282 7.71135 35.9282 8.93316C35.9282 10.155 35.6579 11.1324 35.1173 11.8655ZM32.8736 11.7211C33.4512 11.7211 33.8918 11.4805 34.1954 10.9991C34.499 10.5178 34.6508 9.82915 34.6508 8.93316C34.6508 8.03717 34.499 7.34851 34.1954 6.86719C33.8918 6.38587 33.4512 6.14521 32.8736 6.14521C32.3035 6.14521 31.8629 6.38587 31.5519 6.86719C31.2483 7.34851 31.0965 8.03717 31.0965 8.93316C31.0965 9.82915 31.2483 10.5178 31.5519 10.9991C31.8629 11.4805 32.3035 11.7211 32.8736 11.7211Z" fill="white"/>
</svg>
