<svg width="31" height="31" viewBox="0 0 31 31" fill="none" xmlns="http://www.w3.org/2000/svg">
<circle cx="15.3277" cy="15.6224" r="14.8098" fill="url(#paint0_linear_1_32)"/>
<circle cx="15.3277" cy="15.6224" r="14.8098" fill="url(#paint1_radial_1_32)"/>
<path d="M15.3277 22.4199C15.254 22.4188 15.1819 22.3989 15.118 22.3621C15.0385 22.3259 13.2451 21.3063 11.4228 19.672C8.92796 17.4231 7.66248 15.1886 7.66248 13.0192C7.66182 12.1216 7.94912 11.2475 8.48216 10.5253C9.01519 9.80318 9.76583 9.27107 10.6237 9.00722C11.4817 8.74337 12.4016 8.7617 13.2483 9.05952C14.095 9.35734 14.8239 9.91893 15.3277 10.6617C15.8316 9.91893 16.5604 9.35734 17.4071 9.05952C18.2539 8.7617 19.1738 8.74337 20.0317 9.00722C20.8896 9.27107 21.6402 9.80318 22.1733 10.5253C22.7063 11.2475 22.9936 12.1216 22.993 13.0192C22.993 15.1886 21.7275 17.4231 19.2327 19.672C17.4104 21.3063 15.617 22.3259 15.5374 22.3621C15.4736 22.3989 15.4014 22.4188 15.3277 22.4199ZM11.8567 9.69274C10.9744 9.69274 10.1284 10.0432 9.50453 10.667C8.8807 11.2909 8.53024 12.1369 8.53024 13.0192C8.53024 17.1627 14.1562 20.7784 15.3277 21.4799C16.4992 20.7784 22.1252 17.1627 22.1252 13.0192C22.1269 12.2489 21.8612 11.502 21.3735 10.9058C20.8859 10.3096 20.2064 9.90112 19.4511 9.75007C18.6959 9.59901 17.9116 9.71474 17.2321 10.0775C16.5526 10.4403 16.0201 11.0276 15.7254 11.7392C15.6943 11.8194 15.6397 11.8883 15.5687 11.9369C15.4977 11.9855 15.4137 12.0114 15.3277 12.0114C15.2417 12.0114 15.1577 11.9855 15.0867 11.9369C15.0158 11.8883 14.9611 11.8194 14.93 11.7392C14.6771 11.1327 14.2503 10.6146 13.7033 10.2504C13.1564 9.8862 12.5138 9.69215 11.8567 9.69274Z" fill="white"/>
<defs>
<linearGradient id="paint0_linear_1_32" x1="15.3277" y1="0.812622" x2="15.3277" y2="30.4323" gradientUnits="userSpaceOnUse">
<stop stop-color="#E142AA"/>
<stop offset="1" stop-color="#73FFFF"/>
</linearGradient>
<radialGradient id="paint1_radial_1_32" cx="0" cy="0" r="1" gradientUnits="userSpaceOnUse" gradientTransform="translate(12.5509 9.60596) rotate(67.0113) scale(16.5902)">
<stop offset="0.0480527" stop-color="white" stop-opacity="0.19"/>
<stop offset="1" stop-color="white" stop-opacity="0"/>
</radialGradient>
</defs>
</svg>
