<svg width="645" height="609" viewBox="0 0 645 609" fill="none" xmlns="http://www.w3.org/2000/svg">
<path d="M181.816 133.627C198.25 81.0049 221.792 41.292 248.982 20.0313C262.564 9.41146 276.685 3.68336 290.825 2.81093C304.961 1.93871 319.189 5.91499 332.999 14.8296C360.655 32.6819 385.163 69.399 402.912 119.907C420.652 170.388 430.687 231.936 431.566 295.752C432.444 359.566 424.121 422.341 407.799 475.097C391.469 527.876 368.005 567.816 340.855 589.339C327.293 600.09 313.182 605.954 299.043 606.962C284.909 607.97 270.674 604.13 256.848 595.349C229.161 577.764 204.581 541.285 186.731 490.948" stroke="white" stroke-width="1.85123" stroke-linecap="round" stroke-dasharray="9.26 9.26"/>
<path d="M79.2216 242.767C59.1915 249.015 42.7044 255.961 30.1244 263.369C17.5303 270.785 8.92965 278.62 4.56349 286.609C0.227922 294.541 0.129814 302.504 4.13299 310.356C8.16508 318.265 16.3931 326.123 28.8402 333.645C53.7281 348.685 94.0823 361.54 145.219 370.648C196.335 379.752 256.017 384.72 317.239 384.963C378.461 385.205 438.657 380.712 490.738 372.016C542.838 363.317 584.579 350.785 611.101 335.939C624.366 328.513 633.465 320.709 638.369 312.806C643.245 304.95 643.987 296.987 640.528 289.06C637.042 281.071 629.316 273.189 617.54 265.682C605.777 258.184 590.057 251.113 570.715 244.711" stroke="white" stroke-width="1.85123" stroke-dasharray="9.26 9.26"/>
<circle cx="427.001" cy="378.493" r="23.1404" fill="url(#paint0_linear_1_16)"/>
<circle cx="427.001" cy="378.493" r="23.1404" fill="url(#paint1_radial_1_16)"/>
<path d="M427.881 366.392C427.604 365.539 426.397 365.539 426.12 366.392L423.883 373.277C423.76 373.658 423.404 373.916 423.003 373.916H415.764C414.868 373.916 414.495 375.064 415.22 375.591L421.077 379.845C421.401 380.081 421.537 380.499 421.413 380.88L419.176 387.765C418.899 388.617 419.875 389.327 420.6 388.8L426.457 384.545C426.781 384.309 427.22 384.309 427.545 384.545L433.401 388.8C434.126 389.327 435.102 388.617 434.825 387.765L432.588 380.88C432.465 380.499 432.6 380.081 432.925 379.845L438.781 375.591C439.506 375.064 439.134 373.916 438.237 373.916H430.998C430.597 373.916 430.242 373.658 430.118 373.277L427.881 366.392Z" fill="white"/>
<defs>
<linearGradient id="paint0_linear_1_16" x1="427.001" y1="355.352" x2="427.001" y2="401.633" gradientUnits="userSpaceOnUse">
<stop stop-color="#E142AA"/>
<stop offset="1" stop-color="#73FFFF"/>
</linearGradient>
<radialGradient id="paint1_radial_1_16" cx="0" cy="0" r="1" gradientUnits="userSpaceOnUse" gradientTransform="translate(422.662 369.092) rotate(67.0113) scale(25.9222)">
<stop offset="0.0480527" stop-color="white" stop-opacity="0.19"/>
<stop offset="1" stop-color="white" stop-opacity="0"/>
</radialGradient>
</defs>
</svg>
