<svg width="36" height="59" viewBox="0 0 36 59" fill="none" xmlns="http://www.w3.org/2000/svg">
<path d="M27.1172 28.3825C27.8876 26.5609 29.9888 25.7088 31.8104 26.4792C33.632 27.2496 34.4841 29.3508 33.7137 31.1723L23.6902 54.8724C22.9198 56.694 20.8186 57.5461 18.997 56.7757C17.1754 56.0053 16.3233 53.9041 17.0937 52.0825L27.1172 28.3825Z" fill="#A61473"/>
<path d="M4.68956 32.9759C2.71177 32.9759 1.10846 31.3726 1.10846 29.3948C1.10846 27.417 2.71177 25.8137 4.68956 25.8137H30.4221C32.3999 25.8137 34.0032 27.417 34.0032 29.3948C34.0032 31.3726 32.3999 32.9759 30.4221 32.9759H4.68956Z" fill="#A61473"/>
<path d="M11.7974 3.57895C12.5678 1.75738 14.669 0.905235 16.4906 1.67564C18.3121 2.44604 19.1643 4.54725 18.3939 6.36882L8.37034 30.0689C7.59994 31.8904 5.49873 32.7426 3.67716 31.9722C1.85559 31.2018 1.00345 29.1006 1.77385 27.279L11.7974 3.57895Z" fill="#A61473"/>
</svg>
