<svg width="23" height="23" viewBox="0 0 23 23" fill="none" xmlns="http://www.w3.org/2000/svg">
<path d="M19.9279 7.38592L14.1251 6.84774L11.8201 1.49523C11.6587 1.12044 11.1273 1.12044 10.9659 1.49523L8.66088 6.84769L2.85809 7.38592C2.45176 7.42358 2.28758 7.92897 2.59412 8.19828L6.97234 12.0445L5.69104 17.7296C5.60131 18.1277 6.03125 18.44 6.38209 18.2317L11.393 15.2563L16.4039 18.2317C16.7548 18.44 17.1846 18.1277 17.0949 17.7296L15.8136 12.0445L20.1919 8.19828C20.4984 7.92897 20.3342 7.42358 19.9279 7.38592Z" fill="#A61473"/>
<path d="M12.6582 3.44163L11.82 1.49523C11.6586 1.12044 11.1272 1.12044 10.9659 1.49523L8.66084 6.84769L2.85809 7.38592C2.45176 7.42359 2.28758 7.92897 2.59412 8.19828L6.97234 12.0445L5.69104 17.7296C5.60131 18.1277 6.03125 18.44 6.38209 18.2317L7.04901 17.8357C8.14235 10.7582 11.2161 5.56279 12.6582 3.44163Z" fill="#A61473"/>
</svg>
