<svg width="28" height="28" viewBox="0 0 28 28" fill="none" xmlns="http://www.w3.org/2000/svg">
<path fill-rule="evenodd" clip-rule="evenodd" d="M23.3333 11.2117H18.8626L14.7653 5.07969C14.3919 4.52902 13.5799 4.52902 13.2159 5.07969L9.11861 11.2117H4.66661C4.15328 11.2117 3.73328 11.6317 3.73328 12.145C3.73328 12.229 3.74261 12.313 3.77061 12.397L6.14128 21.049C6.35594 21.833 7.07461 22.4117 7.93328 22.4117H20.0666C20.9253 22.4117 21.6439 21.833 21.8679 21.049L24.2386 12.397L24.2666 12.145C24.2666 11.6317 23.8466 11.2117 23.3333 11.2117ZM13.9906 7.28235L16.6133 11.2117H11.3679L13.9906 7.28235ZM13.9999 18.6784C12.9733 18.6784 12.1333 17.8384 12.1333 16.8117C12.1333 15.785 12.9733 14.945 13.9999 14.945C15.0266 14.945 15.8666 15.785 15.8666 16.8117C15.8666 17.8384 15.0266 18.6784 13.9999 18.6784Z" fill="#C3CAD9"/>
</svg>
