<svg width="42" height="42" viewBox="0 0 42 42" fill="none" xmlns="http://www.w3.org/2000/svg">
<path d="M1 6C1 3.23858 3.23858 1 6 1H41V41H6C3.23858 41 1 38.7614 1 36V6Z" fill="white"/>
<path fill-rule="evenodd" clip-rule="evenodd" d="M14.4668 23.8H27.5334C28.0468 23.8 28.4668 23.38 28.4668 22.8667C28.4668 22.3533 28.0468 21.9333 27.5334 21.9333H14.4668C13.9534 21.9333 13.5334 22.3533 13.5334 22.8667C13.5334 23.38 13.9534 23.8 14.4668 23.8ZM14.4668 27.5333H27.5334C28.0468 27.5333 28.4668 27.1133 28.4668 26.6C28.4668 26.0867 28.0468 25.6667 27.5334 25.6667H14.4668C13.9534 25.6667 13.5334 26.0867 13.5334 26.6C13.5334 27.1133 13.9534 27.5333 14.4668 27.5333ZM14.4668 20.0667H27.5334C28.0468 20.0667 28.4668 19.6467 28.4668 19.1333C28.4668 18.62 28.0468 18.2 27.5334 18.2H14.4668C13.9534 18.2 13.5334 18.62 13.5334 19.1333C13.5334 19.6467 13.9534 20.0667 14.4668 20.0667ZM13.5334 15.4C13.5334 15.9133 13.9534 16.3333 14.4668 16.3333H27.5334C28.0468 16.3333 28.4668 15.9133 28.4668 15.4C28.4668 14.8867 28.0468 14.4667 27.5334 14.4667H14.4668C13.9534 14.4667 13.5334 14.8867 13.5334 15.4Z" fill="#C3CAD9"/>
<path d="M1 6C1 3.23858 3.23858 1 6 1H41V41H6C3.23858 41 1 38.7614 1 36V6Z" stroke="#F5F6F7" stroke-width="2"/>
</svg>
