<svg width="14" height="18" viewBox="0 0 14 18" fill="none" xmlns="http://www.w3.org/2000/svg">
<path fill-rule="evenodd" clip-rule="evenodd" d="M1.40001 15.5333C1.40001 16.56 2.24001 17.4 3.26667 17.4H10.7333C11.76 17.4 12.6 16.56 12.6 15.5333V6.20001C12.6 5.17334 11.76 4.33334 10.7333 4.33334H3.26667C2.24001 4.33334 1.40001 5.17334 1.40001 6.20001V15.5333ZM12.6 1.53334H10.2667L9.60401 0.870673C9.43601 0.702673 9.19334 0.600006 8.95067 0.600006H5.04934C4.80667 0.600006 4.56401 0.702673 4.39601 0.870673L3.73334 1.53334H1.40001C0.886675 1.53334 0.466675 1.95334 0.466675 2.46667C0.466675 2.98001 0.886675 3.40001 1.40001 3.40001H12.6C13.1133 3.40001 13.5333 2.98001 13.5333 2.46667C13.5333 1.95334 13.1133 1.53334 12.6 1.53334Z" fill="#C3CAD9"/>
</svg>
