<svg width="18" height="12" viewBox="0 0 18 12" fill="none" xmlns="http://www.w3.org/2000/svg">
<path fill-rule="evenodd" clip-rule="evenodd" d="M8.06664 11.6H9.93331C10.4466 11.6 10.8666 11.18 10.8666 10.6667C10.8666 10.1533 10.4466 9.73333 9.93331 9.73333H8.06664C7.55331 9.73333 7.13331 10.1533 7.13331 10.6667C7.13331 11.18 7.55331 11.6 8.06664 11.6ZM0.599976 1.33333C0.599976 1.84666 1.01998 2.26666 1.53331 2.26666H16.4666C16.98 2.26666 17.4 1.84666 17.4 1.33333C17.4 0.819994 16.98 0.399994 16.4666 0.399994H1.53331C1.01998 0.399994 0.599976 0.819994 0.599976 1.33333ZM4.33331 6.93333H13.6666C14.18 6.93333 14.6 6.51333 14.6 5.99999C14.6 5.48666 14.18 5.06666 13.6666 5.06666H4.33331C3.81998 5.06666 3.39998 5.48666 3.39998 5.99999C3.39998 6.51333 3.81998 6.93333 4.33331 6.93333Z" fill="#C3CAD9"/>
</svg>
