<svg width="42" height="42" viewBox="0 0 42 42" fill="none" xmlns="http://www.w3.org/2000/svg">
<path d="M1 1H36C38.7614 1 41 3.23858 41 6V36C41 38.7614 38.7614 41 36 41H1V1Z" fill="white"/>
<path fill-rule="evenodd" clip-rule="evenodd" d="M14.4668 21H17.2668C17.7801 21 18.2001 20.58 18.2001 20.0667V16.3333C18.2001 15.82 17.7801 15.4 17.2668 15.4H14.4668C13.9534 15.4 13.5334 15.82 13.5334 16.3333V20.0667C13.5334 20.58 13.9534 21 14.4668 21ZM14.4668 27.5333H17.2668C17.7801 27.5333 18.2001 27.1133 18.2001 26.6V22.8667C18.2001 22.3533 17.7801 21.9333 17.2668 21.9333H14.4668C13.9534 21.9333 13.5334 22.3533 13.5334 22.8667V26.6C13.5334 27.1133 13.9534 27.5333 14.4668 27.5333ZM20.0668 27.5333H22.8668C23.3801 27.5333 23.8001 27.1133 23.8001 26.6V22.8667C23.8001 22.3533 23.3801 21.9333 22.8668 21.9333H20.0668C19.5534 21.9333 19.1334 22.3533 19.1334 22.8667V26.6C19.1334 27.1133 19.5534 27.5333 20.0668 27.5333ZM25.6668 27.5333H28.4668C28.9801 27.5333 29.4001 27.1133 29.4001 26.6V22.8667C29.4001 22.3533 28.9801 21.9333 28.4668 21.9333H25.6668C25.1534 21.9333 24.7334 22.3533 24.7334 22.8667V26.6C24.7334 27.1133 25.1534 27.5333 25.6668 27.5333ZM20.0668 21H22.8668C23.3801 21 23.8001 20.58 23.8001 20.0667V16.3333C23.8001 15.82 23.3801 15.4 22.8668 15.4H20.0668C19.5534 15.4 19.1334 15.82 19.1334 16.3333V20.0667C19.1334 20.58 19.5534 21 20.0668 21ZM24.7334 16.3333V20.0667C24.7334 20.58 25.1534 21 25.6668 21H28.4668C28.9801 21 29.4001 20.58 29.4001 20.0667V16.3333C29.4001 15.82 28.9801 15.4 28.4668 15.4H25.6668C25.1534 15.4 24.7334 15.82 24.7334 16.3333Z" fill="#C3CAD9"/>
<path d="M1 1H36C38.7614 1 41 3.23858 41 6V36C41 38.7614 38.7614 41 36 41H1V1Z" stroke="#F5F6F7" stroke-width="2"/>
</svg>
