<svg width="28" height="28" viewBox="0 0 28 28" fill="none" xmlns="http://www.w3.org/2000/svg">
<path fill-rule="evenodd" clip-rule="evenodd" d="M14.0001 4.66669C8.84808 4.66669 4.66675 8.84802 4.66675 14C4.66675 19.152 8.84808 23.3334 14.0001 23.3334C19.1521 23.3334 23.3334 19.152 23.3334 14C23.3334 8.84802 19.1521 4.66669 14.0001 4.66669ZM17.7334 14.9334H14.9334V17.7334C14.9334 18.2467 14.5134 18.6667 14.0001 18.6667C13.4867 18.6667 13.0667 18.2467 13.0667 17.7334V14.9334H10.2667C9.75341 14.9334 9.33341 14.5134 9.33341 14C9.33341 13.4867 9.75341 13.0667 10.2667 13.0667H13.0667V10.2667C13.0667 9.75335 13.4867 9.33335 14.0001 9.33335C14.5134 9.33335 14.9334 9.75335 14.9334 10.2667V13.0667H17.7334C18.2467 13.0667 18.6667 13.4867 18.6667 14C18.6667 14.5134 18.2467 14.9334 17.7334 14.9334Z" fill="white" fill-opacity="0.5"/>
</svg>
