<svg width="17" height="17" viewBox="0 0 17 17" fill="none" xmlns="http://www.w3.org/2000/svg">
<path fill-rule="evenodd" clip-rule="evenodd" d="M12.2672 10.8673H11.5299L11.2686 10.6153C12.3886 9.30859 12.9672 7.52592 12.6499 5.63126C12.2112 3.03659 10.0459 0.96459 7.43256 0.647257C3.48456 0.161923 0.161893 3.48459 0.647226 7.43259C0.964559 10.0459 3.03656 12.2113 5.63123 12.6499C7.52589 12.9673 9.30856 12.3886 10.6152 11.2686L10.8672 11.5299V12.2673L14.8339 16.2339C15.2166 16.6166 15.8419 16.6166 16.2246 16.2339C16.6072 15.8513 16.6072 15.2259 16.2246 14.8433L12.2672 10.8673ZM6.66723 10.8673C4.34323 10.8673 2.46723 8.99126 2.46723 6.66726C2.46723 4.34326 4.34323 2.46726 6.66723 2.46726C8.99123 2.46726 10.8672 4.34326 10.8672 6.66726C10.8672 8.99126 8.99123 10.8673 6.66723 10.8673Z" fill="#C3CAD9"/>
</svg>
