<svg width="20" height="20" viewBox="0 0 20 20" fill="none" xmlns="http://www.w3.org/2000/svg">
<path fill-rule="evenodd" clip-rule="evenodd" d="M9.99996 0.666656C4.84796 0.666656 0.666626 4.84799 0.666626 9.99999C0.666626 15.152 4.84796 19.3333 9.99996 19.3333C15.152 19.3333 19.3333 15.152 19.3333 9.99999C19.3333 4.84799 15.152 0.666656 9.99996 0.666656ZM7.47063 14.004L4.11996 10.6533C3.94519 10.4789 3.84697 10.2422 3.84697 9.99532C3.84697 9.74844 3.94519 9.5117 4.11996 9.33732C4.48396 8.97332 5.07196 8.97332 5.43596 9.33732L8.13329 12.0253L14.5546 5.60399C14.9186 5.23999 15.5066 5.23999 15.8706 5.60399C16.2346 5.96799 16.2346 6.55599 15.8706 6.91999L8.78663 14.004C8.43196 14.368 7.83463 14.368 7.47063 14.004Z" fill="#C3CAD9"/>
</svg>
